<?xml version="1.0" encoding="utf-8"?>
<!-- Generator: Adobe Illustrator 25.0.0, SVG Export Plug-In . SVG Version: 6.00 Build 0)  -->
<svg version="1.1" id="Layer_1" xmlns="http://www.w3.org/2000/svg" xmlns:xlink="http://www.w3.org/1999/xlink" x="0px" y="0px"
	 viewBox="0 0 26.8 47.7" style="enable-background:new 0 0 26.8 47.7;" xml:space="preserve">
<style type="text/css">
	.st0{fill:#37435B;}
</style>
<path class="st0" d="M16.4,7.6L0.7,0.3C0.4,0.2,0.1,0.4,0.1,0.7l7,39H1.7c-0.2,0-0.4,0.2-0.4,0.4v7.2c0,0.2,0.2,0.4,0.4,0.4h21.2
	c0.2,0,0.4-0.2,0.4-0.4v-7.2c0-0.2-0.2-0.4-0.4-0.4h-5.3l9-34.9c0.1-0.3-0.2-0.5-0.5-0.5L16.4,7.6z M21.3,45.7h-18v-4h18V45.7z
	 M9.2,39.7L2.8,4.2C2.7,3.9,3,3.6,3.3,3.8l13,6l7-2.3c0.3-0.1,0.6,0.2,0.5,0.5l-8.2,31.8H9.2z"/>
<path class="st0" d="M12.3,13.7c-2.2,0-4,1.8-4,4s1.8,4,4,4s4-1.8,4-4S14.5,13.7,12.3,13.7z M12.3,19.7c-1.1,0-2-0.9-2-2s0.9-2,2-2
	s2,0.9,2,2S13.4,19.7,12.3,19.7z"/>
</svg>
