<?xml version="1.0" encoding="utf-8"?>
<!-- Generator: Adobe Illustrator 25.0.1, SVG Export Plug-In . SVG Version: 6.00 Build 0)  -->
<svg version="1.1" id="Layer_1" xmlns="http://www.w3.org/2000/svg" xmlns:xlink="http://www.w3.org/1999/xlink" x="0px" y="0px"
	 viewBox="0 0 32.6 32.6" style="enable-background:new 0 0 32.6 32.6;" xml:space="preserve">
<g>
	<path d="M27.6,0.9H5C2.8,0.9,0.9,2.8,0.9,5v22.5c0,2.3,1.8,4.1,4.1,4.1h22.5c2.3,0,4.1-1.8,4.1-4.1V5C31.7,2.8,29.8,0.9,27.6,0.9z
		 M29.7,27.6c0,1.2-0.9,2.1-2.1,2.1H5c-1.2,0-2.1-0.9-2.1-2.1V5c0-1.2,0.9-2.1,2.1-2.1h22.5c1.2,0,2.1,0.9,2.1,2.1V27.6z"/>
	<path d="M16.8,6.6c-0.3-0.2-0.7-0.2-1,0l-9.3,6.2c-0.2,0.2-0.4,0.4-0.4,0.7v6.2c0,0.3,0.1,0.6,0.4,0.7l9.3,6.2c0.3,0.2,0.7,0.2,1,0
		l9.3-6.2c0.2-0.2,0.4-0.4,0.4-0.7v-6.2c0-0.3-0.1-0.6-0.4-0.7L16.8,6.6z M17.2,9l6.8,4.6l-3.1,2l-3.8-2.5V9z M15.4,9v4.1l-3.8,2.5
		l-3.1-2L15.4,9z M7.9,15.2l2.2,1.5l-2.2,1.5V15.2z M15.4,24.3l-6.8-4.6l3.1-2l3.8,2.5V24.3z M16.3,18.7l-3.1-2.1l3.1-2.1l3.1,2.1
		L16.3,18.7z M17.2,24.3v-4.1l3.8-2.5l3.1,2L17.2,24.3z M24.7,18.1l-2.2-1.5l2.2-1.5V18.1z"/>
</g>
</svg>
