<?xml version="1.0" encoding="utf-8"?>
<!-- Generator: Adobe Illustrator 25.0.1, SVG Export Plug-In . SVG Version: 6.00 Build 0)  -->
<svg version="1.1" id="Layer_1" xmlns="http://www.w3.org/2000/svg" xmlns:xlink="http://www.w3.org/1999/xlink" x="0px" y="0px"
	 viewBox="0 0 25.4 39.3" style="enable-background:new 0 0 25.4 39.3;" xml:space="preserve">
<g>
	<path d="M6.6,12.4c0,3.4,2.8,6.2,6.1,6.2c3.4,0,6.2-2.8,6.2-6.2s-2.8-6.1-6.2-6.1C9.3,6.3,6.6,9,6.6,12.4z M17.3,12.4
		c0,2.5-2,4.6-4.6,4.6s-4.5-2-4.5-4.6s2-4.5,4.5-4.5C15.2,7.9,17.3,9.9,17.3,12.4z"/>
</g>
<g>
	<path d="M23.5,10.1c-1-0.9-1-0.9-0.7-2.3c0.4-2.5-0.1-3.3-2.6-3.6c-1.3-0.2-1.3-0.2-1.9-1.4c-1.1-2.4-2.1-2.6-4.3-1.4
		c-0.2,0.1-0.2,0.1-0.4,0.3c0,0-0.2,0.2-0.8,0.2c-0.7,0-0.9-0.2-0.9-0.2c-0.2-0.1-0.2-0.2-0.4-0.2C9.3,0.3,8.4,0.5,7.2,2.8
		c-0.6,1.2-0.6,1.2-2,1.4C2.7,4.6,2.2,5.5,2.6,7.8c0.2,1.3,0.2,1.3-0.7,2.3c-1.8,1.7-1.9,2.8,0,4.6c1,0.9,1,0.9,0.7,2.3
		c-0.4,2.5,0.1,3.3,2.6,3.6c1.3,0.2,1.3,0.2,2,1.4c0.2,0.4,0.4,0.8,0.7,1.2v14.5c0,0.3,0.2,0.7,0.5,0.7c0.3,0.1,0.7,0.1,0.9-0.2
		l2.6-2.8l0.9-0.9l0.8,0.9l2.6,2.8c0.2,0.2,0.6,0.3,0.9,0.2c0.3-0.1,0.5-0.4,0.5-0.7V23.2c0.2-0.3,0.5-0.8,0.7-1.2
		c0.6-1.2,0.6-1.2,1.9-1.4c2.5-0.3,3.1-1.2,2.6-3.6c-0.2-1.3-0.2-1.3,0.7-2.3C25.3,13,25.4,11.9,23.5,10.1z M15.9,35.7l-2.6-2.8
		c-0.2-0.2-0.5-0.2-0.6-0.2c-0.3,0-0.5,0.2-0.6,0.2l-2.6,2.8V24.1c0.7,0,1.3-0.3,2-0.7c1.2-0.7,1.2-0.7,2.5,0c0.7,0.3,1.2,0.7,2,0.7
		V35.7z M22.4,13.5c-1.4,1.3-1.6,1.8-1.2,3.8c0.2,1.6,0.2,1.6-1.2,1.7c-2,0.2-2.4,0.6-3.2,2.3c-0.2,0.5-0.5,1.1-0.8,1.1
		c-0.2,0-0.7-0.2-1.1-0.5c-1.7-0.9-2.3-0.9-4,0c-1.2,0.7-1.3,0.8-2-0.7c-0.8-1.7-1.2-2-3.2-2.3C4,18.8,4,18.9,4.4,17.3
		c0.3-2,0.2-2.5-1.2-3.8c-1.1-1.1-1.1-1.1,0-2.2C4.5,10,4.7,9.5,4.4,7.6C4.1,6,4.1,6,5.6,5.9c2-0.2,2.4-0.6,3.2-2.3
		c0.7-1.4,0.7-1.4,2-0.7c1.6,0.9,2.2,0.9,3.9,0c1.3-0.7,1.4-0.7,2,0.7c0.8,1.7,1.2,2,3.2,2.3c1.6,0.2,1.6,0.2,1.2,1.7
		c-0.3,2-0.2,2.5,1.2,3.8C23.6,12.4,23.6,12.5,22.4,13.5z"/>
</g>
</svg>
