<?xml version="1.0" encoding="utf-8"?>
<!-- Generator: Adobe Illustrator 25.0.1, SVG Export Plug-In . SVG Version: 6.00 Build 0)  -->
<svg version="1.1" id="Layer_1" xmlns="http://www.w3.org/2000/svg" xmlns:xlink="http://www.w3.org/1999/xlink" x="0px" y="0px"
	 viewBox="0 0 32.6 32.6" style="enable-background:new 0 0 32.6 32.6;" xml:space="preserve">
<g>
	<path d="M27.6,31.7H5c-2.3,0-4.1-1.8-4.1-4.1V5c0-2.3,1.8-4.1,4.1-4.1h22.5c2.3,0,4.1,1.8,4.1,4.1v22.5
		C31.7,29.8,29.8,31.7,27.6,31.7z M5,2.9C3.9,2.9,2.9,3.9,2.9,5v22.5c0,1.2,0.9,2.1,2.1,2.1h22.5c1.2,0,2.1-0.9,2.1-2.1V5
		c0-1.2-0.9-2.1-2.1-2.1H5z"/>
</g>
<path d="M16.7,7.1c-5.3,0-9.6,4.3-9.6,9.6c0,5.3,4.3,9.6,9.6,9.6s9.6-4.3,9.6-9.6C26.3,11.4,22,7.1,16.7,7.1z M21.3,22.9
	c-0.2-0.8-0.6-2.8-1.4-5.1c2-0.3,3.7,0.1,4.3,0.3C23.9,20,22.8,21.7,21.3,22.9z M17.2,16.5c-2.8,0.9-5.2,3.1-6.5,5.1
	c-1.1-1.4-1.8-3.1-1.8-4.9c0,0,0,0,0,0c1,0,4.3-0.1,7.8-1.1C16.9,15.9,17.1,16.2,17.2,16.5z M17.9,13.3c-1.1-1.9-2.2-3.5-2.7-4.2
	c2.3-0.4,4.6,0.2,6.4,1.7C21.2,11.2,20.1,12.4,17.9,13.3z M17.9,18.3c1,2.6,1.4,4.7,1.6,5.6c-2.5,1-5.3,0.6-7.4-1
	C12.9,21.3,15,19.4,17.9,18.3z M19.3,16.1c-0.2-0.4-0.3-0.8-0.5-1.2c2.3-1,3.6-2.3,4.1-2.9c0.9,1.2,1.5,2.7,1.5,4.3
	c-0.6-0.1-1.9-0.3-3.5-0.3C20.4,16,19.8,16,19.3,16.1z M9.2,14.8c0.5-2.2,2-4,4-5c0.4,0.5,1.5,2.2,2.7,4.1
	C12.8,14.7,10.1,14.8,9.2,14.8z"/>
</svg>
