<?xml version="1.0" encoding="utf-8"?>
<!-- Generator: Adobe Illustrator 25.0.0, SVG Export Plug-In . SVG Version: 6.00 Build 0)  -->
<svg version="1.1" id="Layer_1" xmlns="http://www.w3.org/2000/svg" xmlns:xlink="http://www.w3.org/1999/xlink" x="0px" y="0px"
	 viewBox="0 0 771 377" style="enable-background:new 0 0 771 377;" xml:space="preserve">
<style type="text/css">
	.st0{fill:#3EACA8;}
	.st1{fill:#E9E9E9;}
</style>
<g>
	<g>
		<g>
			<g>
				<path class="st0" d="M132.2,103.32c0,40.83-23.17,62.9-62.02,62.9c-35.09,0-58.93-20.08-60.47-56.06h37.08
					c0.88,14.57,10.81,22.07,24.5,22.07s22.95-10.15,22.95-28.91V13.28h37.96V103.32z"/>
				<path class="st0" d="M249.62,137.53h-63.56l-9.93,25.82H136.4l63.78-150.08h35.75l63.56,150.08h-39.73L249.62,137.53z
					 M237.48,106.41l-19.64-50.54l-19.64,50.54H237.48z"/>
				<path class="st0" d="M477.38,163.36h-37.3V88.1l-33.33,51.42v0.22h-20.75v-0.22l-33.55-51.87l0.22,75.7h-37.3V13.28h27.81
					l53.19,80.12l53.19-80.12h27.81V163.36z"/>
				<path class="st0" d="M541.17,45.72v27.37h66.65v31.78h-66.65v26.04h76.14v32.44H503.87V13.28h113.44v32.44H541.17z"/>
				<path class="st0" d="M760.99,59.85h-37.52c-1.99-11.26-8.83-18.98-24.72-18.98c-13.24,0-21.85,5.08-21.85,14.79
					c0,8.61,6.18,12.36,18.1,14.79l20.97,4.41c27.59,5.74,45.24,16.99,45.24,42.82c0,30.02-24.72,48.55-62.24,48.55
					c-33.77,0-64.22-16.11-67.76-53.19h37.52c2.43,13.24,13.68,21.63,31.34,21.63c13.24,0,21.19-5.08,21.19-13.46
					c0-5.3-2.87-10.81-15.89-13.24l-24.72-5.3c-29.57-6.4-43.48-19.86-43.48-43.7c0-30.02,24.28-48.55,59.59-48.55
					C721.04,10.41,757.24,19.46,760.99,59.85z"/>
			</g>
		</g>
		<g>
			<g>
				<path class="st1" d="M145.22,216.76v150.08h-37.08v-56.28H47.01v56.28H9.71V216.76h37.3v60.25h61.13v-60.25H145.22z"/>
				<path class="st1" d="M216.24,249.2v27.37h66.65v31.78h-66.65v26.04h76.14v32.44H178.94V216.76h113.44v32.44H216.24z"/>
				<path class="st1" d="M430.2,341.01h-63.56l-9.93,25.82h-39.73l63.78-150.08h35.75l63.56,150.08h-39.73L430.2,341.01z
					 M418.06,309.89l-19.64-50.54l-19.64,50.54H418.06z"/>
				<path class="st1" d="M617.42,333.51v33.33H505.97V216.76h37.3v116.75H617.42z"/>
				<path class="st1" d="M761.21,216.76l-59.15,104.83v45.24h-37.52v-45.24l-59.37-104.83h41.27l36.64,65.33l36.86-65.33H761.21z"/>
			</g>
		</g>
	</g>
</g>
</svg>
