<?xml version="1.0" encoding="utf-8"?>
<!-- Generator: Adobe Illustrator 25.0.1, SVG Export Plug-In . SVG Version: 6.00 Build 0)  -->
<svg version="1.1" id="Layer_1" xmlns="http://www.w3.org/2000/svg" xmlns:xlink="http://www.w3.org/1999/xlink" x="0px" y="0px"
	 viewBox="0 0 32.6 32.6" style="enable-background:new 0 0 32.6 32.6;" xml:space="preserve">
<g>
	<path d="M27.8,31.7H5.3c-2.3,0-4.1-1.8-4.1-4.1V5c0-2.3,1.8-4.1,4.1-4.1h22.5c2.3,0,4.1,1.8,4.1,4.1v22.5
		C31.9,29.8,30.1,31.7,27.8,31.7z M5.3,2.9C4.1,2.9,3.2,3.9,3.2,5v22.5c0,1.2,0.9,2.1,2.1,2.1h22.5c1.2,0,2.1-0.9,2.1-2.1V5
		c0-1.2-0.9-2.1-2.1-2.1H5.3z"/>
</g>
<g>
	<path d="M11.4,25.7H7.6V13.5h3.8V25.7z M9.5,11.8c-1.2,0-2.2-1-2.2-2.2c0-1.2,1-2.2,2.2-2.2c1.2,0,2.2,1,2.2,2.2
		C11.7,10.8,10.7,11.8,9.5,11.8z M25.7,25.7h-3.8v-6c0-1.4,0-3.2-2-3.2c-2,0-2.3,1.5-2.3,3.1v6.1h-3.8V13.5h3.6v1.7h0.1
		c0.5-1,1.7-2,3.6-2c3.8,0,4.6,2.5,4.6,5.8L25.7,25.7L25.7,25.7z"/>
</g>
</svg>
